<?xml version="1.0" encoding="UTF-8"?>
<svg id="Layer_1" xmlns="http://www.w3.org/2000/svg" version="1.1" viewBox="0 0 3181.27 3181.27">
  <!-- Generator: Adobe Illustrator 29.6.0, SVG Export Plug-In . SVG Version: 2.1.1 Build 207)  -->
  <defs>
    <style>
      .st0 {
        fill: #485b74;
      }

      .st1 {
        fill: none;
        stroke: #fff;
        stroke-miterlimit: 10;
        stroke-width: 3px;
      }

      .st2 {
        fill: #ff4040;
      }
    </style>
  </defs>
  <path class="st0" d="M1254.41,538.03l6.26-58.86s8.77-6.26,27.55-15.03c18.79-8.77,31.31-13.78,35.07-27.55,3.76-13.78,3.76-23.79,12.52-35.07,8.77-11.27,20.04-21.29,20.04-21.29,0,0,11.27-5.01,13.78-21.29,2.5-16.28,16.28-32.56,36.32-45.09,20.04-12.52,33.81-25.05,48.84-27.55,15.03-2.5,37.57-5.01,62.62-8.77,25.05-3.76,36.32-12.52,50.09-2.5,13.78,10.02,15.03,27.55,28.8,17.53,13.78-10.02,27.55-12.52,48.84-12.52s22.54,3.76,40.08,0c17.53-3.76,17.53-10.02,28.8-1.25s17.53,13.78,28.8,8.77,36.32-5.01,56.36-2.5c20.04,2.5,32.56-1.25,51.35-11.27,18.79-10.02,43.83-22.54,57.61-41.33s25.05-46.34,22.54-66.38c-2.5-20.04-5.01-28.8,0-31.31,5.01-2.5,20.04-8.77,20.04-8.77,0,0,17.53,33.81,27.55,53.85,10.02,20.04,26.3,62.62,36.32,80.15,10.02,17.53,25.05,53.85,30.06,63.87s10.02,13.78,11.27,27.55c1.25,13.78,0,23.79,15.03,36.32,15.03,12.52,23.79,43.83,37.57,60.11,13.78,16.28,27.55,40.08,36.32,53.85,8.77,13.78,15.03,25.05,32.56,38.82,17.53,13.78,56.36,57.61,57.61,67.63s-7.51,23.79,7.51,35.07c15.03,11.27,21.29,16.28,26.3,32.56,5.01,16.28,2.5,18.79,15.03,36.32,12.52,17.53,18.79,15.03,17.53,26.3-1.25,11.27,2.5,15.03,11.27,22.54,8.77,7.51,17.53,23.79,21.29,36.32,3.76,12.52,5.01,17.53,16.28,21.29s12.52,13.78,12.52,35.07-1.25,41.33,10.02,52.6c11.27,11.27,31.31,20.04,22.54,42.58-8.77,22.54-12.52,33.81-5.01,56.36s16.28,53.85,22.54,70.13,12.52,46.34,5.01,60.11-16.28,22.54-17.53,38.82c-1.25,16.28-1.25,17.53,6.26,32.56s6.26,21.29,1.25,35.07c-5.01,13.78-2.5,21.29-5.01,38.82-2.5,17.53-18.79,33.81-18.79,50.09s10.02,17.53,6.26,36.32-10.02,20.04-5.01,32.56,0,22.54,7.51,25.05,23.8,7.51,13.78,18.79c-10.02,11.27-25.05,26.3-15.03,43.83,10.02,17.53,18.79,26.3,27.55,10.02,8.77-16.28,30.06-48.84,40.08-41.33s23.8,36.32,11.27,50.09c-12.52,13.78-16.28,37.57-17.53,52.6s6.26,8.77-6.26,35.07c-12.52,26.3-13.78,58.86-18.79,78.9s-6.26,33.81-6.26,53.85-2.5,45.09-11.27,46.34-8.77-13.78-17.53-21.29c-8.77-7.51-10.02-6.26-8.77,8.77s2.5,62.62-3.76,75.14-5.01,16.28-16.28,23.8-10.02,1.25-17.53,11.27-5.01,40.08-20.04,52.6-8.77,13.78-23.8,17.53c-15.03,3.76-22.54-2.5-21.29,7.51,1.25,10.02,5.01,22.54-7.51,20.04s-18.79-10.02-22.54-5.01c-3.76,5.01-26.3,50.09-32.56,41.33-6.26-8.77-1.25-23.8-3.76-33.81-2.5-10.02-11.27-13.78-12.52-7.51-1.25,6.26-2.5,7.51-8.77,6.26-6.26-1.25-6.26-8.77-13.78-1.25s-23.79,20.04-31.31,12.52-6.26-12.52-15.03-10.02-30.06,15.03-31.31,1.25-5.01-18.79-11.27-13.78-10.02,2.5-17.53-11.27c-7.51-13.78-15.03-23.8-20.04-23.8s-6.26,1.25-3.76,13.78c2.5,12.52,8.77,26.3,15.03,37.57,6.26,11.27,8.77,32.56,0,26.3s-22.54-22.54-40.08-27.55c-17.53-5.01-26.3-6.26-26.3,1.25s1.25,10.02-8.77,17.53-21.29,6.26-25.05,13.78c-3.76,7.51-8.77,20.04,1.25,12.52,10.02-7.51,11.27-10.02,21.29-12.52s17.53-8.77,18.79-1.25c1.25,7.51,11.27,21.29-2.5,26.3-13.78,5.01-20.04,0-20.04,11.27s2.5,20.04,1.25,30.06l-1.25,10.02s17.53,2.5,15.03,10.02-5.01,23.79-13.78,23.79-12.52-7.51-12.52-7.51c0,0,2.5-13.78-8.77-11.27-11.27,2.5-17.53,3.76-21.29-2.5s-10.02-6.26-1.25-12.52,2.5-16.28,0-22.54-5.01-5.01-7.51,5.01-8.77,25.05-11.27,18.79-2.5-18.79-11.27-18.79-22.54-1.25-27.55,11.27-15.03,11.27-22.54,12.52-2.5-7.51-15.03-12.52c-12.52-5.01-27.55-11.27-25.05-22.54s0-10.02,0-20.04,5.01-32.56,0-33.81-22.54,13.78-22.54,13.78c0,0,3.76,0,5.01,10.02s5.01,12.52-8.77,15.03c-13.78,2.5-26.3-20.04-30.06-8.77s-11.27,28.8-25.05,28.8-22.54-7.51-32.56-7.51-12.52-3.76-20.04-7.51c-7.51-3.76-8.77-2.5-10.02,6.26-1.25,8.77-7.51,15.03-12.52,20.04s-12.52,12.52-21.29,8.77c-8.77-3.76-16.28-8.77-17.53-12.52-1.25-3.76,0-13.78,0-13.78,0,0-12.52,8.77-8.77,27.55,3.76,18.79,13.78,38.82,22.54,42.58,8.77,3.76,11.27,3.76,17.53-2.5s16.28-6.26,26.3-7.51,22.54,1.25,17.53,10.02-8.77,17.53-8.77,25.05,7.51,41.33-12.52,31.31c-20.04-10.02-21.29-22.54-30.06-10.02s-13.78,20.04-13.78,20.04c0,0,8.77,3.76,7.51,12.52-1.25,8.77,6.26,20.04-8.77,17.53-15.03-2.5-25.05-8.77-28.8-18.79-3.76-10.02-5.01-21.29,2.5-25.05s11.27-11.27,3.76-22.54-20.04-28.8-20.04-28.8c0,0-1.25-20.04-2.5-25.05s-6.26-11.27-8.77,1.25c-2.5,12.52-3.76,16.28-20.04,17.53s-38.82-8.77-30.06,1.25c8.77,10.02,16.28,22.54,7.51,23.79s-20.04-2.5-17.53,6.26c2.5,8.77,18.79-2.5,17.53,10.02-1.25,12.52-6.26,25.05,7.51,31.31,13.78,6.26,25.05,18.79,25.05,26.3s1.25,6.26,7.51,10.02,9.96,14.58,6.62,18.75-10.85,13.36-22.54,6.68c-11.69-6.68-16.7-16.7-26.72-14.19-10.02,2.5-20.04,5.01-19.2,13.36.83,8.35,1.67,18.37,11.69,17.53,10.02-.83,23.38-.83,20.04,8.35-3.34,9.18-8.35,23.38-16.7,24.21s-12.52.83-17.53,8.35c-5.01,7.51-2.5,21.71-11.69,5.84-9.18-15.86-6.68-14.19-15.86-20.04-9.18-5.84-15.86-8.35-18.37-14.19-2.5-5.84.83-13.36-8.35-11.69-9.18,1.67-20.04,13.36-30.06,11.69-10.02-1.67-13.36-21.71-10.85-25.05s19.2-10.85,25.05-20.87c5.84-10.02,10.02-25.05,11.69-17.53,1.67,7.51-5.01,25.05-4.17,29.22.83,4.17,10.02,7.51,13.36,6.68s1.67-10.85,5.84-13.36c4.17-2.5,10.02-5.01,6.68-10.02s-13.36-24.21-6.68-32.56c6.68-8.35,16.7-18.37,19.2-7.51,2.5,10.85,0,25.05,13.36,15.03s15.03-15.03,12.52-24.21c-2.5-9.18-8.35-27.55-13.36-19.2s-15.03,12.52-18.37,8.35-7.51-21.71-15.03-10.85-3.34,15.03-10.02,23.38c-6.68,8.35-14.19,12.52-25.05,12.52s-15.03.83-23.38,8.35c-8.35,7.51-30.89,25.88-35.9,30.89s-6.68,14.19-10.02,23.38c-3.34,9.18-4.17,12.52-10.85,20.04-6.68,7.51-11.69,9.18-12.52,17.53-.83,8.35-2.5,16.7-9.18,17.53s-8.35.83-10.85,3.34c-2.5,2.5-.83,15.86-9.18,10.85s-8.35-8.35-14.19-9.18c-5.84-.84-15.03-1.67-15.86-15.03-.84-13.36-4.17-29.22-2.5-40.91s0-21.71-6.68-18.37c-6.68,3.34-16.7,9.18-13.36,17.53s9.18,15.03,3.34,17.53c-5.84,2.5-15.86-.84-11.69,5.01,4.17,5.84,10.85,11.69,5.84,16.7s-10.02,4.17-10.02,10.85.83,12.52-10.02,12.52-10.02,2.5-15.03,7.51-10.02,5.01-15.86,12.52-8.35,11.69-8.35,16.7-1.67,10.02-2.5,15.86c-.84,5.84-3.34,11.69-10.02,10.85-6.68-.83-9.18,5.84-15.03,9.18-5.84,3.34-13.36,2.5-12.52-7.51.83-10.02.83-17.53.83-17.53l-17.53-5.84s-2.5-4.17,1.67-10.85c4.17-6.68,13.36-20.04,10.02-23.38-3.34-3.34-3.34-5.01-8.35-6.68s-1.67-12.52-3.34-17.53-8.35-12.52-8.35-12.52c0,0,5.84-16.7,14.19-14.19s24.21,9.18,18.37,4.17-7.51-18.37-7.51-18.37l7.51-9.18s-3.34-.83-10.02,2.5-11.69-3.34-15.03,0-7.51,10.02-15.03,10.02-15.86-5.01-21.71-5.84c-5.84-.83-3.34-8.35-9.18-9.18-5.84-.83-9.18-8.35-11.69-9.18-2.5-.83-3.34,1.67-10.02,1.67s-14.19-8.35-10.85-14.19c3.34-5.84,8.35-7.51.83-13.36-7.51-5.84-12.52-10.85-12.52-20.04s0-16.7,2.5-23.38,5.01-18.37,12.52-20.87,19.2,8.35,21.71,15.86c2.5,7.51-.84,14.19-1.67,21.71-.84,7.51,0,9.18,5.01,13.36,5.01,4.17,0,11.69,5.84,19.2s7.51,2.5,15.86,7.51,21.71,19.2,20.87,5.84c-.84-13.36-10.85-23.38-19.2-30.89s-10.02-10.02-6.68-16.7,15.03-6.68,23.38,2.5,4.17,17.53,14.19,22.54c10.02,5.01,17.53,12.52,20.87,7.51s2.5-11.69,10.85-5.01,22.54,6.68,19.2-.84-30.06-33.4-39.24-40.91c-9.18-7.51-2.5-10.02-16.7-12.52-14.19-2.5-25.88-2.5-29.22-5.01-3.34-2.5-5.84-9.18,6.68-9.18s17.53-2.5,22.54-1.67c5.01.84,5.01,6.68,12.52,9.18s15.86-2.5,15.86-10.02,7.51-24.21,19.2-16.7,19.2,10.02,24.21,3.34,12.52-11.69-.84-15.03-22.54-3.34-22.54-3.34c0,0-1.67-12.52,0-20.04,1.67-7.51,1.67-15.86-3.34-17.53s-5.01-5.84-9.18,9.18c-4.17,15.03-8.35,31.73-10.02,37.57s-7.51,18.37-12.52,14.19c-5.01-4.17-5.01-10.02-7.51-12.52s-4.17-5.84-11.69-2.5c-7.51,3.34-33.4,18.37-33.4,4.17s20.04-17.53,15.86-28.39c-4.17-10.85-6.68-10.85-2.5-14.19,4.17-3.34,7.51-4.17,2.5-10.85-5.01-6.68-10.85-9.18-4.17-20.04,6.68-10.85,16.7-12.52,11.69-17.53s-7.51-11.69-15.03-4.17c-7.51,7.51-13.36,8.35-14.19,15.03s-4.17,8.35-10.02,11.69-5.01-5.84-7.51-10.02c-2.5-4.17-9.18-15.03-.83-14.19,8.35.83,9.18,7.51,11.69-.83,2.5-8.35,0-10.02,6.68-12.52s8.35-5.01,7.51-9.18-4.17-10.85-11.69-17.53-8.35-18.37-12.52-12.52c-4.17,5.84-9.18,15.86-13.36,9.18-4.17-6.68-2.5-13.36-5.01-17.53-2.5-4.17-12.52-20.04-5.84-25.88s20.04.84,24.21,5.01c4.17,4.17,6.68,1.67,5.84-3.34-.83-5.01,5.84-9.18,8.35-3.34,2.5,5.84-3.34,13.36-1.67,19.2,1.67,5.84,4.17,16.7,9.18,20.87s15.03,2.5,16.7,6.68c1.67,4.17-1.67,13.36,5.01,10.85,6.68-2.5,19.2-20.04,7.51-32.56s-27.55-33.4-27.55-52.6,1.67-23.38-3.34-31.73,2.5-14.19,5.84-20.87,6.68-30.89,14.19-30.89,14.19,10.02,15.86,6.68-1.67-13.36-8.35-20.87c-6.68-7.51-1.67-16.7,6.68-31.73,8.35-15.03,26.72-44.25,33.4-43.42s26.72,0,35.9-6.68,13.36-11.69,20.04-6.68c6.68,5.01,16.7,8.35,15.03,0s.83-23.38-16.7-23.38-49.26,2.5-55.11,5.01c-5.84,2.5-11.69-4.17-14.19-10.02s-9.18-14.19,6.68-23.38,53.44-41.75,58.45-45.09,8.35-4.17,15.86.83c7.51,5.01,10.02.83,11.69-5.01,1.67-5.84,5.84-14.19,13.36-15.03,7.51-.83,15.86,5.01,21.71,3.34,5.84-1.67,10.85-14.19,3.34-19.2s-19.2-14.19-25.05-19.2c-5.84-5.01-11.69-12.52,1.67-11.69,13.36.84,25.88-.83,33.4-6.68s12.52-15.86,4.17-15.86-21.43,4.73-34.79,6.4-16.7,1.67-25.05-4.45c-8.35-6.12-7.24-8.91-13.92-8.35s-6.12,1.11-6.12-6.12-1.67-20.04,9.46-24.49,33.95-3.34,41.19-5.57,11.69-16.7,20.6-16.14c8.91.56,15.03-1.67,23.38-6.68s7.79-10.58,1.11-12.8c-6.68-2.23-26.72,3.9-33.95,11.13s-10.58,11.13-17.26,12.8-23.94,3.34-25.61,1.67-10.02-14.47-13.36-26.72,1.11-14.47-4.45-18.93c-5.57-4.45-13.36-16.14-27.28-20.6-13.92-4.45-17.81-2.78-22.82-.56-5.01,2.23-7.24-6.68,0-11.69,7.24-5.01,22.82-11.69,28.39-13.92,5.57-2.23,4.45-11.69-5.57-15.59-10.02-3.9-14.47-12.25-7.24-20.6,7.24-8.35,15.59-16.7,12.8-22.27-2.78-5.57-9.46-13.36-15.03-11.69s-10.58-8.35-2.78-11.13c7.79-2.78,15.03-2.78,18.37-3.9s3.9-19.48-4.45-16.7-15.59,0-20.04-5.57c-4.45-5.57-5.57-15.03,3.34-20.04,8.91-5.01,27.28-15.59,28.95-20.04s-1.11-11.69-11.13-6.12-18.37,16.14-23.94,13.92c-5.57-2.23-15.03-19.48-9.46-25.61,5.57-6.12,18.37-16.14,14.47-19.48s-10.58,1.67-16.14-.56c-5.57-2.23-4.45-12.25-2.78-19.48,1.67-7.24.56-11.69,9.46-10.02,8.91,1.67,12.25.56,11.13-7.24-1.11-7.79-1.11-17.26-5.01-22.82-3.9-5.57-4.45-6.68-1.11-11.69,3.34-5.01,1.11-11.13-3.34-12.25-4.45-1.11-6.12-8.91-5.57-14.47.56-5.57,2.23-16.7-5.01-10.02-7.24,6.68-11.13,8.35-10.58,18.37.56,10.02-1.67,11.13-8.91,18.93-7.24,7.79-20.04,20.04-21.71,7.24-1.67-12.8,3.9-29.5,1.67-33.95s-7.24-15.03-11.13-11.13c-3.9,3.9-6.68,15.03-11.13,20.04s-5.01,10.02-.56,14.47,6.68,13.92,5.57,21.71.56,15.59-5.57,17.26c-6.12,1.67-8.35,3.34-11.13,3.9s-5.57-5.57-1.67-13.36c3.9-7.79,8.35-15.59,3.34-20.6s-15.03-3.34-13.92-10.58,3.34-28.39-1.11-24.49-10.02,21.15-21.71,22.82-15.59-.56-18.37-6.68-6.68-10.02,2.78-11.13c9.46-1.11,17.81-3.9,16.14-7.79-1.67-3.9.56-11.69-7.79-13.92-8.35-2.23-17.81-2.78-17.81-.56s1.11,15.03-4.45,16.7c-5.57,1.67-8.35-9.46-8.91-14.47s5.57-15.03,12.8-20.04c7.24-5.01,12.8-6.68,17.26-5.01,4.45,1.67,5.57-4.45,3.9-8.91s-2.23-8.91-1.11-13.92c1.11-5.01,4.45-11.13,2.23-15.59-2.23-4.45-10.58-9.46-4.45-13.92,6.12-4.45,16.7-4.45,20.04,1.67,3.34,6.12,4.45,12.25,10.58,10.58,6.12-1.67,11.13-5.01,9.46-12.8-1.67-7.79-1.67-25.05,1.67-30.61,3.34-5.57,7.79-5.01,10.02,1.11s3.34,23.94,1.11,37.85c-2.23,13.92-5.01,21.71-6.68,28.95s-10.58,11.13-3.34,13.36,21.71,2.23,20.04-6.68c-1.67-8.91-7.79-19.48,1.11-20.04,8.91-.56,18.37,4.45,18.93-3.9s8.35-21.15,11.13-26.16,2.78-9.46-3.34-12.25c-6.12-2.78-21.15-7.79-17.81-12.8s5.01-10.58,5.01-13.92,8.91-12.25,16.14-14.47c7.24-2.23,11.69,2.78,12.8,8.91s-7.79,14.47-.56,17.81c7.24,3.34,16.14,5.57,14.47,13.36s-11.13,9.46-7.79,17.81.56,26.16,4.45,27.28c3.9,1.11,11.69-3.34,11.13-12.8-.56-9.46,1.11-22.82,5.01-27.83s7.24-6.68,11.69-1.11,10.58,23.38,13.92,15.03c3.34-8.35,4.45-13.92,0-20.6s-8.35-8.91-4.45-12.8c3.9-3.9,3.9-7.79,0-13.36s-8.35-11.69-10.58-16.7,2.23-8.35,7.79-7.79c5.57.56,17.26,16.7,23.94,24.49,6.68,7.79,11.13,18.93,10.58,26.16-.56,7.24-1.11,16.7,2.23,13.36s13.92-21.71,18.93-25.61c5.01-3.9,0-12.8,6.12-12.8s10.02,16.14,14.47,18.93,6.68-8.35,12.25-7.79,16.7,8.35,17.81,17.26c1.11,8.91-4.45,16.7.56,16.14s13.92-7.79,14.47,2.78c.56,10.58-5.01,43.97-.56,50.65s3.9,12.25,1.67,16.14c-2.23,3.9.56,7.24,3.9,5.01s1.11-23.94,5.57-27.28c4.45-3.34,12.25.56,13.36-3.34s-11.69-16.7-12.25-21.71,7.24-13.36,17.26-15.59,32.28-10.02,36.74-13.92c4.45-3.9,3.9-3.34,3.9-13.36s6.68-12.8,8.35-16.14c1.67-3.34-7.24-7.24-12.8-3.34-5.57,3.9-7.24,13.92-9.46,22.82-2.23,8.91-12.8,8.91-23.38,5.57-10.58-3.34-7.79-2.78-21.71-16.14-13.92-13.36-19.48-17.81-11.13-21.15s15.03,1.67,18.37-5.01,8.35-7.24,8.91-11.13c.56-3.9-6.68-8.35-6.68-13.36s2.23-33.4-2.23-25.05c-4.45,8.35.56,18.93-7.24,26.16-7.79,7.24-20.04,9.46-29.5,7.24s-16.7-3.9-10.58-12.8c6.12-8.91,4.45-13.36,4.45-19.48s1.11-15.59,15.59-18.93,25.05-7.24,19.48-12.25c-5.57-5.01-17.26-13.92-27.28-11.69s-12.8-1.11-20.04,9.46c-7.24,10.58-16.7,19.48-18.93,13.36-2.23-6.12-6.68-11.69-3.9-21.71s6.68-15.59,2.78-21.71-17.26-17.26-6.68-22.82c10.58-5.57,22.27,0,30.06,7.24s11.13,11.13,16.14,5.57c5.01-5.57,5.01-15.59,10.02-19.48,5.01-3.9,11.69,2.23,13.92-2.23,2.23-4.45.56-17.81-6.12-16.14s-8.35,8.35-15.03,3.34c-6.68-5.01-15.59-14.47-23.94-14.47s-15.03-6.68-8.91-10.02,15.59-6.68,14.47-10.58c-1.11-3.9-4.45-7.24-7.79-8.91-3.34-1.67-27.28-7.24-30.61-16.7-3.34-9.46,1.67-17.26,1.67-30.06s-.56-22.27-.56-32.28,1.67-11.69-2.78-19.48c-4.45-7.79-6.68-10.58-10.02-13.36-3.34-2.78-21.15-8.91-28.39-25.61s-4.45-23.94-6.68-35.62c-2.23-11.69-2.78-27.83,7.24-24.49s15.59,9.46,24.49,7.79c8.91-1.67,16.14-9.46,16.7-2.78.56,6.68-7.79,36.74,1.67,45.64,9.46,8.91,18.93,16.14,25.05,17.26s13.92-2.78,6.12-10.02c-7.79-7.24-25.61-19.48-22.82-26.72,2.78-7.24,3.34-10.58,3.34-18.37s.56-27.28,1.11-31.73c.56-4.45-.76-13.1-.76-13.1h.08Z"/>
  <path class="st0" d="M1121.23,560.87s-1.91-5.01,4.77-10.85c6.68-5.84,16.58-8.35,31.61-.83,15.03,7.51,19.14,15.86,23.32,32.56,4.17,16.7,6.65,24.21,7.48,38.41.83,14.19-.02,30.89-11.7,33.4-11.69,2.5-19.21-.83-26.73,2.5s-25.05,0-23.38-10.02,3.34-14.19,7.51-20.04c4.17-5.84,5.25-17.53-3.1-22.54-8.35-5.01-9.78-10.85-9.78-18.37v-24.21h0Z"/>
  <path class="st0" d="M1063.97,570.89s-7.51-1.67-8.35-9.18,3.34-6.68,10.02-13.36,13.36-11.69,21.71-6.68,8.35,7.51,15.86,7.51,12.52,5.84,6.68,11.69c-5.84,5.84-15.03,10.02-22.54,7.51-7.51-2.5-5.01-5.01-10.85-3.34s-12.52,5.84-12.52,5.84h-.01Z"/>
  <path class="st0" d="M1087.35,598.44s-2.5-8.35,2.5-13.36c5.01-5.01,16.7-8.35,15.86-.83s.83,14.19,6.68,17.53c5.84,3.34,14.19,10.85,11.69,17.53-2.5,6.68-8.35,10.02-15.03,5.84-6.68-4.17-21.71-26.72-21.71-26.72h.01Z"/>
  <path class="st0" d="M1056.45,636.01s-3.34-5.84,3.34-7.51,9.18,5.84,8.35,9.18c-.83,3.34-2.5,9.18-11.69-1.67Z"/>
  <path class="st0" d="M1033.07,623.49s-6.68-7.51,1.67-8.35c8.35-.83,16.7,5.84,12.52,10.02-4.17,4.17-14.19-1.67-14.19-1.67h0Z"/>
  <path class="st0" d="M1099.87,687.78s-8.35-2.5,3.34-5.84,19.2,0,18.37,5.84-8.35,9.18-13.36,7.51-8.35-7.51-8.35-7.51Z"/>
  <path class="st0" d="M1173.35,728.69c-2.5,0-6.68-7.51-2.5-12.52,4.17-5.01,5.01-20.87,15.03-22.54s21.71-1.67,23.38,8.35c1.67,10.02-5.01,14.19-14.19,15.86s-21.71,10.85-21.71,10.85h-.01Z"/>
  <path class="st0" d="M1144.12,698.64s0-5.84,5.84-9.18c5.84-3.34,12.52-3.34,12.52.83s-5.01,6.68-10.02,7.51-8.35.83-8.35.83h.01Z"/>
  <path class="st0" d="M1134.1,772.11s-3.34-5.84.84-9.18,12.52.83,12.52,6.68-2.5,14.19-7.51,11.69-5.84-9.18-5.84-9.18h-.01Z"/>
  <path class="st0" d="M1200.06,833.9s-2.5-7.51,5.84-5.84c8.35,1.67,10.02,10.85,8.35,18.37-1.67,7.51-8.35,10.85-13.36,8.35s-.84-20.87-.84-20.87h.01Z"/>
  <path class="st0" d="M1149.13,843.08s-6.68-6.68-5.01-13.36,11.69-10.02,16.7-9.18c5.01.83,8.35,3.34,8.35,10.85s-2.5,11.69-7.51,14.19-12.52-2.5-12.52-2.5h0Z"/>
  <path class="st0" d="M1144.12,947.45s-8.35-6.68,0-10.02,13.36,1.67,12.52,4.17-3.34,10.85-12.52,5.84h0Z"/>
  <path class="st0" d="M1084.84,835.57s2.5-6.68,9.18-4.17c6.68,2.5,11.69,11.69,7.51,15.03s-10.85-.83-16.7-10.85h0Z"/>
  <path class="st0" d="M1006.35,850.6s-5.01-2.5-4.17-8.35c.83-5.84,8.35-13.36,15.86-10.02,7.51,3.34,15.86,15.86,9.18,20.87-6.68,5.01-14.19,2.5-20.87-2.5Z"/>
  <path class="st0" d="M942.06,877.32s-1.67-8.35,5.01-10.85,10.85-1.67,10.85,3.34-3.34,10.85-15.86,7.51h0Z"/>
  <path class="st0" d="M981.31,919.06s-1.67-4.17,4.17-5.01c5.84-.83,11.69,5.01,10.85,10.02s-2.5,7.51-15.03-5.01h.01Z"/>
  <path class="st0" d="M943.73,961.65s-1.67-6.68,4.17-8.35,11.69,2.5,10.85,7.51-5.01,7.51-8.35,5.01c-3.34-2.5-6.68-4.17-6.68-4.17h.01Z"/>
  <path class="st0" d="M974.63,1147.01s-6.68-4.17.84-7.51c7.51-3.34,15.03,0,14.19,4.17s-8.35,5.84-15.03,3.34Z"/>
  <path class="st0" d="M1094.86,1202.11s-7.51-9.18-2.5-14.19,20.04-10.85,20.04-3.34-5.84,12.52-1.67,17.53c4.17,5.01,6.68,20.87,5.01,27.55s3.34,8.35,4.17,15.86c.84,7.51,1.67,15.03,6.68,20.04s11.69,13.36.83,17.53c-10.85,4.17-15.03,5.01-17.53-2.5s0-10.02-6.68-12.52-12.52-8.35-8.35-12.52,5.01-8.35.84-11.69-2.5-15.03-2.5-19.2,1.67-22.54,1.67-22.54h-.01Z"/>
  <path class="st0" d="M1125.75,1307.32s-3.34-5.84,2.5-8.35c5.84-2.5,20.04-.84,19.2,5.01-.84,5.84-5.01,8.35-10.02,8.35s-11.69-5.01-11.69-5.01h.01Z"/>
  <path class="st0" d="M1093.19,1326.52s-1.67-5.84,2.5-9.18c4.17-3.34,13.36-2.5,13.36,2.5s-4.17,6.68-7.51,7.51-8.35-.83-8.35-.83Z"/>
  <path class="st0" d="M977.97,1381.63s-6.68-11.69-.83-13.36c5.84-1.67,11.69-1.67,11.69,3.34s-10.85,10.02-10.85,10.02h-.01Z"/>
  <path class="st0" d="M932.88,1437.57s-2.5-5.01,4.17-7.51c6.68-2.5,11.69-1.67,11.69,4.17s-.84,6.68-5.84,7.51c-5.01.83-10.02-4.17-10.02-4.17h0Z"/>
  <path class="st0" d="M1138.28,1596.21s-9.18-10.85-4.17-15.86,14.19-1.67,18.37,2.5c4.17,4.17,3.34,10.85-.83,12.52-4.17,1.67-13.36.84-13.36.84h-.01Z"/>
  <path class="st0" d="M1058.96,1719.78s-4.17-5.84.83-10.85c5.01-5.01,10.85-10.85,15.03-7.51,4.17,3.34,2.5,6.68-.84,10.02s-15.03,8.35-15.03,8.35h.01Z"/>
  <path class="st0" d="M951.25,1847.53s-5.84-.83-3.34-6.68c2.5-5.84,10.02-5.01,12.52-4.17,2.5.83,5.01,4.17,2.5,6.68s-7.51,5.84-7.51,5.84l-4.17-1.67h0Z"/>
  <path class="st0" d="M966.28,1988.36l-1.11-8.35s-3.9-8.91,6.12-17.26,28.94-23.38,32.84-23.94c3.9-.56,3.9,5.01,0,11.13s-8.91,10.58-10.02,20.04c-1.11,9.46-2.23,13.92-6.68,18.37s-15.03,6.12-21.15,0h0Z"/>
  <path class="st0" d="M1015.82,1981.68c-.45-2.25-3.9-6.12,1.67-10.58,5.57-4.45,16.7-4.45,20.04-2.78s3.9,7.24,3.34,9.46c-.56,2.23,2.78,16.14-5.01,15.59-7.79-.56-19.48-8.91-20.04-11.69Z"/>
  <path class="st0" d="M1042.54,2005.62s-2.23-3.9.56-7.24c2.78-3.34,2.23-6.68,8.35-4.45s11.13,8.91,7.79,11.13-16.7.56-16.7.56h0Z"/>
  <path class="st0" d="M1041.98,2022.87s-2.78-7.24,2.23-7.79c5.01-.56,12.25,2.78,13.36,7.24,1.11,4.45.56,7.24-3.9,7.24s-11.69-6.68-11.69-6.68h0Z"/>
  <path class="st0" d="M1000.23,2001.72s-5.01-1.67,1.11-4.45,12.8-2.23,16.7,0,0,8.91-4.45,9.46-13.36-5.01-13.36-5.01Z"/>
  <path class="st0" d="M993.55,2021.76s-5.01-4.45.56-6.68c5.57-2.23,13.36-2.78,15.59.56,2.23,3.34.56,8.35-2.78,9.46s-13.36-3.34-13.36-3.34h-.01Z"/>
  <path class="st0" d="M998.56,2048.48c-1.61-.46-1.67-1.11-2.23-7.24-.56-6.12-2.78-9.46,2.23-9.46s12.25-2.23,14.47.56c2.23,2.78-.56,9.46-4.45,10.02-3.9.56-2.23,8.35-10.02,6.12h0Z"/>
  <path class="st0" d="M1035.3,2067.4s-1.11-6.12,2.78-8.35c3.9-2.23,11.13-1.67,12.8,1.67,1.67,3.34-2.78,7.79-5.57,7.79s-10.02-1.11-10.02-1.11h0Z"/>
  <path class="st0" d="M1045.32,2103.58s-3.9-2.78-.56-9.46,17.26-1.67,20.6-5.01,3.34-6.68,2.78-10.58c-.56-3.9.56-7.24,8.35-8.91,7.79-1.67,12.25,7.24,9.46,12.8-2.78,5.57-10.58,3.9-6.12,8.91s10.58,6.68,13.36,13.36c2.78,6.68,1.11,13.92-3.9,12.8-5.01-1.11-6.68-6.12-12.8-10.58-6.12-4.45-15.03-4.45-19.48-3.34-4.45,1.11-11.69,0-11.69,0h0Z"/>
  <path class="st0" d="M936.78,2089.67s-7.79-6.68,0-13.92,12.25,0,18.37-6.68,11.69-4.45,17.26-7.24c5.57-2.78,6.68-.56,6.68,5.57s-7.24,24.49-16.14,25.61c-8.91,1.11-26.16-3.34-26.16-3.34h-.01Z"/>
  <path class="st0" d="M970.73,2113.6c-1.05-1.71-3.9-9.46,2.23-12.25,6.12-2.78,7.24-1.67,10.58-6.68s7.24-12.8,12.25-12.8,7.24,8.35,7.24,13.92,1.11,10.58-6.12,13.92c-7.24,3.34-8.91,4.45-12.8,9.46-3.9,5.01-8.91,1.67-13.36-5.57h-.02Z"/>
  <path class="st0" d="M989.66,2128.63s-3.9-4.45,2.78-6.12c6.68-1.67,6.68-6.68,11.13-4.45s8.91,11.69,2.23,13.92-10.02.56-12.8-.56c-2.78-1.11-3.34-2.78-3.34-2.78h0Z"/>
  <path class="st0" d="M1000.79,2153.12c-2.23-2.23-5.57-6.68,0-7.24s7.79.56,9.46,5.01,0,8.35-1.67,13.36-4.45,8.91-7.24,5.57-5.01-6.68-3.9-9.46,3.34-7.24,3.34-7.24h0Z"/>
  <path class="st0" d="M974.63,2150.34s-8.91-3.9-6.12-7.79c2.78-3.9,7.79-5.57,12.8-5.01s8.35,2.23,9.46,9.46c1.11,7.24-1.67,13.92-5.57,12.8-3.9-1.11-10.58-9.46-10.58-9.46h.01Z"/>
  <path class="st0" d="M917.29,2133.64s-6.12-10.58,2.78-13.92c8.91-3.34,11.13,2.23,16.14,3.34s7.79,5.01,6.68,8.91-4.45,9.46-10.58,10.02c-6.12.56-15.03-8.35-15.03-8.35h.01Z"/>
  <path class="st0" d="M893.91,2162.59s-1.67-2.78-3.34-7.79c-1.67-5.01-5.01-6.12-1.11-11.13,3.9-5.01,6.12-7.79,11.13-3.34s3.34,15.59,2.23,18.93c-1.11,3.34-6.12,5.57-8.91,3.34h0Z"/>
  <path class="st0" d="M897.81,2180.96s-7.24-4.45,1.67-8.91c8.91-4.45,11.69-3.9,15.59-9.46,3.9-5.57,7.79-8.91,13.92-3.34,6.12,5.57,8.35,17.26,3.9,23.94-4.45,6.68-8.91,10.02-15.03,10.02s-20.04-12.25-20.04-12.25h-.01Z"/>
  <path class="st0" d="M989.66,2222.7s-7.79-8.35-2.78-15.03,12.25-10.58,17.81-8.91c5.57,1.67,8.35,3.9,9.46,10.02s0,11.13-6.68,13.36c-6.68,2.23-17.81.56-17.81.56h0Z"/>
  <path class="st0" d="M967.39,2238.29c-1.67-1.11-3.9-6.12-6.12-10.58-2.23-4.45-5.01-10.02.56-11.13,5.57-1.11,11.13,2.23,15.03,6.68s6.12,14.47,1.67,15.03-11.13,0-11.13,0h-.01Z"/>
  <path class="st0" d="M946.79,2244.41c-1.67-.56-6.68-7.79-6.12-11.69s-.56-8.35,5.01-7.24,8.91,3.9,9.46,8.91c.56,5.01-1.67,6.68-3.34,7.79-1.67,1.11-5.01,2.23-5.01,2.23Z"/>
  <path class="st0" d="M956.81,2269.46s-6.68-3.9,0-10.02,12.25-8.35,16.7-8.91c4.45-.56,7.79,3.34,5.57,6.68-2.23,3.34-14.47,16.7-22.27,12.25Z"/>
  <path class="st0" d="M858.29,2229.94s-6.12-2.23-2.78-7.79c3.34-5.57,10.02-10.02,13.92-7.24,3.9,2.78,3.9,7.24,2.23,11.69-1.67,4.45-13.36,3.34-13.36,3.34h0Z"/>
  <path class="st0" d="M988.82,2344.33s-5.01,1.67-10.02-1.67c-5.01-3.34-8.35-19.2,1.67-26.72,10.02-7.51,24.21-14.19,25.88-21.71s2.5-12.52,9.18-11.69,10.02-6.68,15.86-6.68,14.19,10.02,16.7.83c2.5-9.18.83-18.37-4.17-21.71s-14.19-11.69-5.84-12.52,10.02,14.19,17.53,11.69,10.02,6.68,13.36,10.85c3.34,4.17,11.69,5.01,22.54,15.03,10.85,10.02,6.68,19.2,2.5,26.72s-4.17,23.38-11.69,25.88c-7.51,2.5-13.36-4.17-17.53,1.67-4.17,5.84-39.24,26.72-47.59,28.39s-13.36-2.5-17.53-3.34c-4.17-.84-10.85-5.01-10.85-15.03h0Z"/>
  <path class="st0" d="M937.05,2377.73s-5.84-9.18,5.01-7.51c10.85,1.67,23.38,3.34,20.04,8.35s-16.7,5.84-25.05-.84Z"/>
  <path class="st0" d="M948.74,2399.43s-7.51-3.34,2.5-7.51c10.02-4.17,25.05-2.5,25.05,2.5s-6.68,14.19-15.03,13.36c-8.35-.83-12.52-8.35-12.52-8.35h0Z"/>
  <path class="st0" d="M1215.09,2382.74s-7.51-2.5-4.17-12.52,1.67-19.2,7.51-21.71c5.84-2.5,15.03-3.34,22.54,4.17s15.86,34.23,20.04,39.24c4.17,5.01,5.01,5.84-4.17,10.02-9.18,4.17-16.7,4.17-18.37-1.67-1.67-5.84-.83-10.02-6.68-12.52-5.84-2.5-16.7-5.01-16.7-5.01Z"/>
  <path class="st0" d="M1269.37,2359.36s-3.34-1.67-3.34-7.51-2.5-9.18,3.34-15.03c5.84-5.84,15.86-17.53,20.04-11.69,4.17,5.84,3.34,11.69,9.18,12.52,5.84.83,9.18,8.35,2.5,11.69-6.68,3.34-15.03.84-18.37,5.01s-10.02,5.01-13.36,5.01h0Z"/>
  <path class="st0" d="M1281.05,2387.75c-2.5-.84-7.51-5.84.83-10.85,8.35-5.01,24.21-8.35,31.73-4.17,7.51,4.17,4.17,15.03.83,19.2-3.34,4.17-7.51,10.02-12.52,7.51s-6.68-7.51-10.85-10.02c-4.17-2.5-10.02-1.67-10.02-1.67h0Z"/>
  <path class="st0" d="M1315.29,2349.34s-3.34-8.35,5.01-6.68c8.35,1.67,16.7,5.84,20.04,10.02,3.34,4.17,1.67,10.02-5.84,13.36s-14.19.83-15.86-5.01-3.34-11.69-3.34-11.69h-.01Z"/>
  <path class="st0" d="M1381.25,2320.95s5.84-5.01,12.52-1.67,7.51,15.03,5.01,17.53-10.85,1.67-13.36-1.67c-2.5-3.34-4.17-14.19-4.17-14.19h0Z"/>
  <path class="st0" d="M1417.99,2316.77s-5.01-9.18.83-12.52,15.03,4.17,19.2-1.67c4.17-5.84,13.36-6.68,19.2-5.84,5.84.83,15.86,7.51,14.19,16.7s-15.86,19.2-25.88,20.04c-10.02.83-28.39-.83-27.55-16.7h.01Z"/>
  <path class="st0" d="M1352.03,2382.74s2.5-5.84,10.02-5.84,12.52,10.85,8.35,15.03c-4.17,4.17-20.04,7.51-18.37-9.18h0Z"/>
  <path class="st0" d="M1379.58,2367.71s0-7.51,6.68-4.17,14.19,7.51,12.52,15.03-5.84,10.85-10.85,6.68c-5.01-4.17-8.35-17.53-8.35-17.53h0Z"/>
  <path class="st0" d="M1468.08,2351.84s2.5-4.17,9.18-4.17,12.52,5.01,10.02,10.02-9.18,2.5-11.69,1.67c-2.5-.84-7.51-7.51-7.51-7.51h0Z"/>
  <path class="st0" d="M1179.19,2459.55s-3.34-6.68-5.01-14.19,9.18-13.36,14.19-7.51c5.01,5.84,11.69,15.86,7.51,20.04s-16.7,1.67-16.7,1.67h.01Z"/>
  <path class="st0" d="M1212.59,2492.11s-5.84-3.34-5.01-18.37c.84-15.03,10.02-26.72,14.19-20.04,4.17,6.68,4.17,25.88,2.5,31.73-1.67,5.84-11.69,6.68-11.69,6.68h.01Z"/>
  <path class="st0" d="M1157.48,2485.44c-3.34,0-6.68-3.34-8.35-8.35-1.67-5.01,1.67-15.03,12.52-14.19s38.41,4.17,34.23,9.18c-4.17,5.01-22.54,9.18-25.05,10.85-2.5,1.67-13.36,2.5-13.36,2.5h.01Z"/>
  <path class="st0" d="M1302.76,2467.07s-2.5-1.67,3.34-10.85,10.85-20.87,19.2-13.36,15.86,31.73,5.01,35.07-22.54-4.17-27.55-10.85h0Z"/>
  <path class="st0" d="M1672.7,2098.48s-6.26-8.77,3.76-12.52c10.02-3.76,15.03-3.76,12.52,2.5-2.5,6.26-16.28,10.02-16.28,10.02Z"/>
  <path class="st0" d="M1721.55,2114.76s-11.27-8.77,2.5-20.04c13.78-11.27,20.04-7.51,18.79-17.53s-3.76-13.78,11.27-13.78,21.29,13.78,15.03,18.79-12.52,15.03-12.52,15.03c0,0,7.51,30.06,22.54,27.55,15.03-2.5,21.29-2.5,33.81-2.5s18.79,6.26,13.78,16.28,0,21.29-3.76,33.81-13.78,16.28-13.78,16.28c0,0-16.28,5.01-23.79-5.01s-2.5-40.08-12.52-30.06-3.76,26.3-18.79,27.55-17.53-11.27-20.04-23.8c-2.5-12.52-2.5-18.79-6.26-25.05s-6.26-17.53-6.26-17.53h0Z"/>
  <path class="st0" d="M2015.85,2123.52s-11.27-18.79-2.5-32.56,17.53-15.03,31.31-13.78c13.78,1.25,20.04,13.78,20.04,3.76s-20.04-20.04-2.5-25.05c17.53-5.01,25.05-2.5,27.55-20.04,2.5-17.53-1.25-31.31,11.27-32.56s8.77,20.04,6.26,27.55c-2.5,7.51-6.26,12.52,1.25,21.29s8.77,17.53,1.25,25.05,2.5,11.27,2.5,11.27c0,0,15.03-3.76,7.51,13.78s-13.78,21.29-11.27,30.06c2.5,8.77,0,7.51-7.51,5.01s-7.51,0-13.78,7.51c-6.26,7.51-13.78,12.52-5.01,15.03,8.77,2.5,16.28,5.01,10.02,11.27s-11.27,2.5-18.79,7.51c-7.51,5.01-15.03,17.53-17.53,3.76-2.5-13.78-1.25-26.3-7.51-27.55s-16.28-7.51-5.01-15.03c11.27-7.51,15.03-20.04,6.26-22.54s-15.03,0-18.79,3.76-10.02,8.77-15.03,2.5h.01Z"/>
  <path class="st0" d="M2144.85,2027.09s-3.76-21.29,0-26.3,15.03-8.77,18.79-1.25c3.76,7.51,3.76,18.79-1.25,23.8s-17.53,3.76-17.53,3.76h-.01Z"/>
  <path class="st0" d="M2255.05,1995.78s-7.51-20.04,1.25-18.79c8.77,1.25,20.04,10.02,16.28,17.53s-17.53,1.25-17.53,1.25h0Z"/>
  <path class="st0" d="M2063.44,2040.87s-5.01-7.51,5.01-11.27,12.52,0,10.02,3.76-10.02,12.52-15.03,7.51Z"/>
  <path class="st0" d="M2022.11,2064.66s-7.51-12.52,1.25-15.03c8.77-2.5,11.27,5.01,10.02,8.77s-11.27,6.26-11.27,6.26Z"/>
  <path class="st0" d="M1961.23,2133.92s-13-12.52,0-12.52c12,0,22.32,2.13,27.33,2.13s3.63,8.77-1.38,17.53c-5.01,8.77-9.82,16.28-14.83,12.52s-11.12-19.66-11.12-19.66Z"/>
  <path class="st0" d="M2002.08,2153.58s-2.5-18.79,2.5-16.28c5.01,2.5,16.28,15.03,10.02,18.79s-12.52-2.5-12.52-2.5h0Z"/>
  <path class="st0" d="M1999.57,2187.39s-11.27-7.51-7.51-13.78c3.76-6.26,12.52-10.02,13.78-5.01,1.25,5.01-6.26,18.79-6.26,18.79h-.01Z"/>
  <path class="st0" d="M1881.85,2114.76s0-13.78,11.27-8.77,22.54,21.29,15.03,27.55-22.54-5.01-26.3-18.79h0Z"/>
  <path class="st0" d="M1921.92,2164.85s5.01-12.52,10.02-6.26,3.76,13.78-1.25,12.52c-5.01-1.25-8.77-6.26-8.77-6.26Z"/>
  <path class="st0" d="M1879.34,2194.91s-7.51-6.26,1.25-10.02c8.77-3.76,15.03-3.76,12.52,1.25-2.5,5.01-13.78,8.77-13.78,8.77h.01Z"/>
  <path class="st0" d="M1901.89,2231.23s-6.26-3.76,0-10.02,13.78-2.5,18.79,1.25c5.01,3.76,5.01,10.02-1.25,12.52s-17.53-3.76-17.53-3.76h-.01Z"/>
  <path class="st0" d="M1790.43,2109.75s-8.77-8.77-2.5-17.53c6.26-8.77,10.02-17.53,16.28-17.53s11.27,5.01,6.26,13.78-1.25,11.27,5.01,6.26,12.52-8.77,15.03,0c2.5,8.77,3.76,20.04-7.51,22.54s-32.56-7.51-32.56-7.51h-.01Z"/>
  <path class="st0" d="M1683.97,2231.23s-7.51-6.26,5.01-16.28,21.29-18.79,22.54-8.77-5.01,27.55-5.01,36.32-5.01,2.5-22.54-11.27Z"/>
  <path class="st0" d="M1677.71,2280.07s-1.25-3.76,7.51-8.77c8.77-5.01,12.52,1.25,17.53,5.01s7.51,16.28,0,22.54-25.05-18.79-25.05-18.79h.01Z"/>
  <path class="st0" d="M1650.16,2270.05s-8.77-5.01-1.25-11.27c7.51-6.26,18.79-6.26,18.79,0s-17.53,11.27-17.53,11.27h-.01Z"/>
  <path class="st0" d="M1607.58,2251.27s-13.78-6.26-8.77-12.52,16.28-10.02,18.79-2.5c2.5,7.51-10.02,15.03-10.02,15.03h0Z"/>
  <path class="st0" d="M1580.03,2296.35s-6.26,11.27-15.03,6.26-10.02-21.29-2.5-25.05c7.51-3.76,11.27,10.02,11.27,10.02l6.26,8.77Z"/>
  <path class="st0" d="M1571.26,2323.9s-7.51-6.26,6.26-11.27c13.78-5.01,17.53,2.5,20.04,6.26,2.5,3.76,0,17.53-7.51,21.29s-18.79-8.77-18.79-16.28Z"/>
  <path class="st0" d="M1710.27,2341.44s-5.01-16.28-1.25-20.04,10.02-2.5,11.27,2.5c1.25,5.01,0,15.03-10.02,17.53h0Z"/>
  <path class="st0" d="M1472.32,2451.64s-11.27-5.01-5.01-13.78,16.28-7.51,17.53-2.5-12.52,16.28-12.52,16.28Z"/>
  <path class="st0" d="M992.67,2913.77s-10.02-21.29,5.01-30.06,26.3-6.26,33.81-23.79,38.82-38.82,60.11-36.32,23.8-8.77,45.09-13.78c21.29-5.01,37.57-1.25,56.36-11.27s75.14-12.52,92.68-8.77c17.53,3.76,25.05,16.28,33.81,26.3,8.77,10.02,22.54,21.29,6.26,46.34s-31.31,48.84-55.1,56.36c-23.79,7.51-43.83,13.78-55.1,17.53-11.27,3.76-58.86,26.3-86.41,21.29s-51.35-13.78-62.62-6.26-27.55,27.55-45.09,10.02c-17.53-17.53-27.55-31.31-28.8-47.59h-.01Z"/>
  <path class="st0" d="M1344.58,2822.34s-13.78-3.76-6.26-11.27c7.51-7.51,16.28-2.5,17.53,2.5s-2.5,8.77-11.27,8.77Z"/>
  <path class="st0" d="M2562.82,896.2s-20.81-5.68-9.46-17.03c11.35-11.35,24.59-3.78,26.48,3.78s-3.78,13.24-17.03,13.24h.01Z"/>
  <path class="st0" d="M2631.83,908.3s-5.81-10.17,2.91-10.17,10.9,7.99,8.72,11.63-6.54,3.63-11.63-1.45h0Z"/>
  <path class="st1" d="M1441.02,276.28s-2.5,27.55,2.5,40.08c5.01,12.52,12.52-3.76,18.79,8.77s5.01,40.08,15.03,43.83c10.02,3.76,18.79-7.51,28.8-8.77,10.02-1.25,13.78,3.76,7.51,13.78-6.26,10.02-11.27,15.03,0,17.53s12.52,11.27,17.53,15.03,8.77-11.27,16.28-11.27,27.55-8.77,32.56,7.51-8.77,38.82,7.51,47.59,33.81-5.01,37.57,10.02,2.5,18.79,12.52,17.53c10.02-1.25,16.28,8.77,16.28,22.54s-13.78,17.53-25.05,30.06-21.29,16.28-13.78,27.55,13.78,13.78,3.76,25.05c-10.02,11.27-12.52,13.78-5.01,13.78s16.28-1.25,13.78,10.02-18.79,38.82-3.76,40.08c15.03,1.25,11.27-13.78,28.8,1.25s27.55,26.3,50.09,26.3,30.06,8.77,37.57,13.78c7.51,5.01,3.76,12.52-6.26,16.28s-25.05,7.51-13.78,20.04c11.27,12.52,8.77,40.08,0,53.85s-3.76,16.28-6.26,36.32-15.03,38.82-13.78,53.85c1.25,15.03,3.76,31.31,20.04,33.81s41.33-2.5,51.35-6.26,5.01-22.54,11.27-32.56,12.52-17.53,22.54-15.03,15.03,13.78,20.04,26.3c5.01,12.52,16.28,10.02,26.3-1.25s13.78-11.27,23.79-8.77c10.02,2.5,15.03-15.03,27.55-8.77s21.29,20.04,32.56,15.03c11.27-5.01,21.29-8.77,17.53,3.76-3.76,12.52-28.8,20.04-22.54,32.56s11.27,8.77,26.3,0,28.8-7.51,32.56,7.51,8.77,17.53,20.04,8.77c11.27-8.77,15.03,3.76,27.55,12.52,12.52,8.77,35.07,1.25,52.6,15.03s36.32,23.79,41.33,15.03c5.01-8.77,12.52-18.79,21.29-22.54,8.77-3.76,8.77,5.01,18.79,15.03s26.3-1.25,32.56-11.27,11.27-12.52,23.8-2.5c12.52,10.02,23.8,15.03,35.07,3.76s13.78-21.29,27.55-6.26c13.78,15.03,27.55,23.79,40.08,22.54s6.26-17.53,15.03-26.3c8.77-8.77,53.85-30.06,53.85-30.06"/>
  <path class="st1" d="M1217.6,653.55s5.84,0,13.36-8.35c7.51-8.35,12.52-17.53,20.04-7.51s15.86,20.87,29.22,20.04c13.36-.84,20.87-3.34,17.53,7.51-3.34,10.85-16.7,17.53-18.37,27.55-1.67,10.02-4.17,19.2,4.17,26.72,8.35,7.51,16.7,15.03,8.35,25.88s-6.68,25.05-20.87,28.39"/>
  <path class="st1" d="M1374.57,1009.24s14.19,6.68,27.55,3.34c13.36-3.34,20.04-13.36,32.56-20.04s25.05,9.18,36.74,17.53c11.69,8.35,33.4,23.38,35.9,23.38s-1.67-15.86,10.02-23.38c11.69-7.51,35.07-8.35,32.56-16.7-2.5-8.35-11.69-17.53,4.17-17.53s19.2,3.34,22.54-10.85,16.7-20.87,28.39-16.7c11.69,4.17,15.03,9.18,23.38,0s26.72-17.53,27.55-29.22c.83-11.69-2.5-26.72,10.02-17.53s15.03,8.35,20.87-2.5,13.36-27.55,13.36-27.55"/>
  <path class="st1" d="M1304.43,1476.81s15.03-5.84,19.2-15.86c4.17-10.02,1.67-25.05,5.01-31.73,3.34-6.68,15.86.83,20.87-5.84,5.01-6.68,14.19-11.69,21.71-5.01,7.51,6.68,16.7-1.67,25.88,10.02,9.18,11.69,9.18,21.71,16.7,27.55,7.51,5.84,12.52,9.18,20.87,3.34,8.35-5.84,25.88-13.36,37.57-8.35s17.53,10.02,19.2.84,6.68-9.18,17.53-13.36c10.85-4.17,20.87-5.84,22.54,7.51,1.67,13.36.83,35.07,8.35,42.58,7.51,7.51,12.52,12.52,15.86,9.18s5.01-9.18,12.52,3.34,10.02,15.03,20.87,13.36,15.86,0,15.86-11.69,0-21.71,12.52-12.52c12.52,9.18,23.38,17.53,27.55,10.85s5.01-11.69,3.34-21.71c-1.11-6.68.56-7.51,5.01-2.5,6.68,7.51,3.34-10.85,12.52-5.01s-.83,11.69,13.36,14.19,20.87,18.37,31.73,11.69c10.85-6.68,15.86-12.52,29.22-10.02s5.01,15.03,14.19,22.54,13.36,17.53,6.68,22.54c-6.68,5.01-7.51,8.35-12.52,12.52s-.83,15.86,7.51,14.19c8.35-1.67,17.53,6.68,15.86,13.36s5.84,1.67,16.7,6.68,21.71,19.2,38.41,16.7c16.7-2.5,25.05-3.34,27.55,10.02s13.36,6.68,23.38,24.21c10.02,17.53,12.52,32.56,3.34,40.08s-22.54,11.69-10.85,17.53c11.69,5.84,17.53,10.02,28.39,5.01,10.85-5.01,26.72-9.18,38.41-2.5,11.69,6.68,7.51,16.7,16.7,18.37,9.18,1.67,10.85.83,15.03-3.34,4.17-4.17,10.02,6.68,18.37-1.67,8.35-8.35,12.52,0,20.04-3.34s9.18-6.68,10.85-15.86,4.17-18.37,10.02-10.02c5.84,8.35-1.67,33.4,11.69,38.41s9.18,16.7,26.72,9.18c17.53-7.51,13.36-10.85,29.22-.83,15.86,10.02,25.05,17.53,35.9,12.52,10.85-5.01,11.69-7.51,20.87-8.35,9.18-.83,14.19-7.51,21.71-19.2,7.51-11.69,12.52-15.86,26.72-6.68,14.19,9.18,26.72,25.88,29.22,15.86s0-18.37,12.52-17.53c12.52.83,20.04,5.01,19.2-5.84-.83-10.85-6.68-22.54,8.35-24.21,15.03-1.67,15.86-2.5,19.2-9.18s3.34-1.67,12.52,0,20.04-4.17,29.22,5.84c9.18,10.02,4.17,23.38,15.86,30.06,11.69,6.68,12.52.83,24.21-8.35,11.69-9.18,15.86-5.01,29.22.83,13.36,5.84,27.55,7.51,30.89,9.18"/>
  <path class="st1" d="M2089.74,951.31s2.89,6.16-9.64,7.83c-12.52,1.67-27.55.83-26.72,8.35.83,7.51-8.35,19.2-19.2,25.05-10.85,5.84-22.54,17.53-30.06,25.88-7.51,8.35-15.03,10.02-12.52,20.87,2.5,10.85,15.86,22.54,5.01,31.73s-16.7,12.52-32.56,15.86c-15.86,3.34-15.03,7.51-20.04-1.67s-13.36-28.39-25.88-30.06-15.86-4.17-16.7,5.84c-.83,10.02.83,11.69-10.02,15.03s-13.36,5.01-17.53-.83-5.01-7.51-10.85-1.67-10.02,21.71-20.87,10.02-13.36.83-15.86,9.18c-2.5,8.35-9.18,18.37,0,21.71s22.54,15.03,15.86,18.37-10.85,2.5-18.37-1.67c-7.51-4.17-8.35-10.85-14.19-5.84s-10.85,10.02-13.36,4.17c-2.5-5.84-4.17-10.02-9.18-1.67s-3.34,11.69-13.36,12.52c-10.02.83-17.53,3.34-9.18,9.18,8.35,5.84,17.53,12.52,15.03,24.21s-5.01,24.21-10.02,15.86-7.51-25.88-15.03-22.54c-7.51,3.34-4.17,4.17-11.69,12.52-7.51,8.35-28.39,6.68-22.54,14.19,5.84,7.51,8.35,9.18,17.53,8.35,9.18-.83,10.02,4.17,14.19,12.52,4.17,8.35,14.19,4.17,15.86,12.52s-15.03,12.52-13.36,27.55,5.84,22.54-1.67,29.22-10.02,10.85-1.67,16.7c8.35,5.84,12.52,12.52,2.5,22.54s-16.7,22.54-13.36,30.06c3.34,7.51,12.52,2.5,16.7,0,4.17-2.5,16.7,13.36,26.72,15.03s10.85-5.01,20.87-5.01,19.2-10.02,19.2,1.67-5.01,16.7-1.67,23.38,6.68,14.19-5.01,12.52-30.89-10.02-24.21,0,13.36,10.02,7.51,22.54c-5.84,12.52-17.53,12.52-15.03,24.21s1.67,20.04-4.17,25.88-18.37,5.84-21.71,11.69c-3.34,5.84-10.85,10.02-10.85,10.02"/>
  <path class="st1" d="M1507.33,1033.45s-.83,15.03,8.35,22.54c9.18,7.51,23.38,18.37,28.39,20.87s16.7,15.03,11.69,24.21-12.52,5.84-21.71,6.68c-9.18.83-22.54,17.53-25.88,26.72-3.34,9.18,0,16.7-5.84,21.71s-10.02,10.85-3.34,11.69c6.68.83,5.01,10.85,8.35,19.2s23.38,13.36,24.21,25.88-3.34,26.72,6.68,27.55c10.02.83,10.85,6.68,13.36,13.36,2.5,6.68,22.54,5.01,22.54,5.01,0,0,15.86-10.85,14.19,5.01s.83,23.38,10.02,19.2c9.18-4.17,16.7-.84,12.52,8.35-4.17,9.18-14.19,20.87-19.2,40.91s-18.37,45.92-5.01,46.76c13.36.83,12.52-6.68,25.05-2.5,12.52,4.17,20.04,10.85,18.37,22.54-1.67,11.69-8.35,26.72.83,36.74,9.18,10.02,15.03,19.2,16.7,22.54s.83,14.19.83,14.19"/>
  <path class="st1" d="M1746.96,1549.45s-6.68,3.34-12.52,12.52-14.19,16.7-26.72,20.87c-12.52,4.17-22.54,6.68-27.55,15.86-5.01,9.18-8.35,15.03-18.37,20.87s-10.02,13.36-10.85,26.72-18.37,20.87-13.36,37.57,2.5,21.71-5.84,30.06c-8.35,8.35-13.36,21.71-4.17,26.72,9.18,5.01,20.87,13.36,18.37,20.04s-12.52,18.37-4.17,22.54,21.71,10.85,15.03,16.7c-6.68,5.84-23.38,19.2-22.54,27.55.83,8.35,5.84,23.38-2.5,26.72-8.35,3.34-20.04,9.18-20.04,9.18,0,0-8.35-20.87-33.4-25.05s-30.89-2.5-35.07,9.18c-4.17,11.69-5.01,20.04-14.19,15.03-9.18-5.01-13.36-14.19-20.87-5.84s-14.19,8.35-24.21,2.5c-10.02-5.84-15.86-17.53-20.04-14.19-4.17,3.34.83,15.03-5.01,14.19-5.84-.83-8.35-10.85-14.19-10.85s-18.37,10.02-30.06,12.52c-11.69,2.5-17.53-.83-23.38-8.35s4.17-9.18,5.01-17.53c.83-8.35-3.34-10.85-7.51-15.86s-5.84-14.19-3.34-18.37c2.5-4.17,2.5-17.53-3.34-22.54s-17.53-1.67-20.87,5.01-6.68,4.17-5.84,13.36c.83,9.18.83,20.04-15.86,6.68-16.7-13.36-18.37-21.71-23.38-26.72s-11.69-16.7-20.87-14.19c-9.18,2.5-10.02,8.35-18.37,9.18-8.35.83-20.04-3.34-19.2,9.18.83,12.52,5.01,14.19-.83,22.54-5.84,8.35-6.68,8.35-7.51,15.86s-8.35,10.85-19.2,12.52-10.85,9.18-16.7,16.7c-5.84,7.51-9.18-5.84-18.37-6.68-9.18-.83-8.35,10.85-13.36,15.03-5.01,4.17-12.52,2.5-15.03-3.34-2.5-5.84,3.34-15.86-5.01-20.04-8.35-4.17-16.7,3.34-15.86-8.35.83-11.69,12.52-41.75-25.05-39.24"/>
  <path class="st1" d="M1687.68,2057.94s18.37-20.04,15.03-37.57-15.86-25.05-25.05-34.23c-9.18-9.18-15.86-15.86-17.53-26.72s-3.34-13.36-10.02-17.53-19.2-11.69-20.04-27.55c-.83-15.86,1.67-11.69-4.17-22.54-5.84-10.85-10.85-20.87-10.85-20.87l-3.34-7.51"/>
  <circle class="st2" cx="1516.1" cy="712.94" r="32.33"/>
  <circle class="st2" cx="1383.62" cy="794.07" r="32.33"/>
  <circle class="st2" cx="1561.12" cy="819.41" r="32.33"/>
  <circle class="st2" cx="1470.35" cy="848.49" r="32.33"/>
  <circle class="st2" cx="1537.38" cy="1253.03" r="32.33"/>
  <circle class="st2" cx="2262.69" cy="1884.83" r="32.33"/>
  <circle class="st2" cx="1148.72" cy="2847.12" r="32.33"/>
  <circle class="st2" cx="1593.44" cy="680.61" r="32.33"/>
  <circle class="st2" cx="1648.64" cy="773.78" r="32.33"/>
  <circle class="st2" cx="1788.52" cy="781.76" r="32.33"/>
  <circle class="st2" cx="2184.41" cy="628.26" r="32.33"/>
  <circle class="st2" cx="1430.83" cy="722.69" r="32.33"/>
</svg>